<svg width="1259" height="586" viewBox="0 0 1259 586" fill="none" xmlns="http://www.w3.org/2000/svg">
<mask id="path-1-inside-1_1_300" fill="white">
<path d="M0 192H465.188V301H0V192Z"/>
</mask>
<path d="M0 192V193H465.188V192V191H0V192Z" fill="#27272A" mask="url(#path-1-inside-1_1_300)"/>
<mask id="path-3-inside-2_1_300" fill="white">
<path d="M1256.99 32H1258.98V84.5H1256.99V32Z"/>
</mask>
<path d="M1256.99 32H1258.98V84.5H1256.99V32Z" fill="#09090B"/>
<path d="M1256.99 32V31H1255.99V32H1256.99ZM1258.98 32H1259.98V31H1258.98V32ZM1258.98 84.5V85.5H1259.98V84.5H1258.98ZM1256.99 84.5H1255.99V85.5H1256.99V84.5ZM1256.99 32V33H1258.98V32V31H1256.99V32ZM1258.98 32H1257.98V84.5H1258.98H1259.98V32H1258.98ZM1258.98 84.5V83.5H1256.99V84.5V85.5H1258.98V84.5ZM1256.99 84.5H1257.99V32H1256.99H1255.99V84.5H1256.99Z" fill="#27272A" mask="url(#path-3-inside-2_1_300)"/>
</svg>
