<svg width="37" height="41" viewBox="0 0 37 41" fill="none" xmlns="http://www.w3.org/2000/svg">
<path d="M2.56666 8.1895C2.09065 8.82418 1.83333 9.59614 1.83333 10.3895V34.8333C1.83333 35.8058 2.21964 36.7384 2.90727 37.4261C3.5949 38.1137 4.52753 38.5 5.49999 38.5H31.1667C32.1391 38.5 33.0718 38.1137 33.7594 37.4261C34.447 36.7384 34.8333 35.8058 34.8333 34.8333V10.3895C34.8333 9.59614 34.576 8.82418 34.1 8.1895L30.4333 3.29999C30.0918 2.84461 29.6489 2.475 29.1398 2.22043C28.6306 1.96586 28.0692 1.83333 27.5 1.83333H9.16666C8.59743 1.83333 8.03601 1.96586 7.52688 2.22043C7.01774 2.475 6.57487 2.84461 6.23333 3.29999L2.56666 8.1895Z" stroke="#9F9FA9" stroke-width="3.66667" stroke-linecap="round" stroke-linejoin="round"/>
</svg>
