<svg width="37" height="41" viewBox="0 0 37 41" fill="none" xmlns="http://www.w3.org/2000/svg">
<path d="M3.6729 23.8381C3.32597 23.8393 2.98582 23.742 2.69198 23.5576C2.39814 23.3731 2.16266 23.1091 2.01291 22.7962C1.86315 22.4832 1.80527 22.1342 1.84598 21.7897C1.88669 21.4451 2.02433 21.1192 2.2429 20.8498L20.3929 2.14978C20.529 1.99263 20.7146 1.88644 20.919 1.84863C21.1235 1.81082 21.3347 1.84364 21.5181 1.94171C21.7014 2.03978 21.846 2.19726 21.928 2.38832C22.0101 2.57937 22.0247 2.79264 21.9696 2.99312L18.4496 14.0298C18.3458 14.3076 18.3109 14.6064 18.348 14.9006C18.3851 15.1949 18.4929 15.4757 18.6624 15.7191C18.8319 15.9624 19.0578 16.1611 19.3209 16.2979C19.584 16.4348 19.8763 16.5057 20.1729 16.5048H33.0062C33.3532 16.5036 33.6933 16.6009 33.9871 16.7853C34.281 16.9698 34.5165 17.2338 34.6662 17.5467C34.816 17.8597 34.8739 18.2087 34.8331 18.5532C34.7924 18.8978 34.6548 19.2237 34.4362 19.4931L16.2862 38.1931C16.1501 38.3503 15.9646 38.4565 15.7601 38.4943C15.5556 38.5321 15.3444 38.4993 15.1611 38.4012C14.9777 38.3031 14.8332 38.1456 14.7511 37.9546C14.6691 37.7635 14.6544 37.5503 14.7096 37.3498L18.2296 26.3131C18.3334 26.0353 18.3682 25.7365 18.3311 25.4423C18.2941 25.148 18.1862 24.8672 18.0167 24.6238C17.8473 24.3805 17.6213 24.1818 17.3582 24.045C17.0951 23.9081 16.8028 23.8372 16.5062 23.8381H3.6729Z" stroke="#9F9FA9" stroke-width="3.66667" stroke-linecap="round" stroke-linejoin="round"/>
</svg>
