<svg width="37" height="41" viewBox="0 0 37 41" fill="none" xmlns="http://www.w3.org/2000/svg">
<path d="M13.9835 5.71738C14.0845 4.65467 14.5781 3.66779 15.3679 2.94956C16.1576 2.23132 17.1868 1.83333 18.2543 1.83333C19.3218 1.83333 20.3509 2.23132 21.1407 2.94956C21.9304 3.66779 22.424 4.65467 22.525 5.71738C22.5857 6.40388 22.811 7.06565 23.1816 7.64667C23.5523 8.22769 24.0574 8.71086 24.6544 9.05529C25.2513 9.39971 25.9225 9.59525 26.611 9.62535C27.2995 9.65545 27.9851 9.51923 28.6099 9.22821C29.5799 8.78781 30.6791 8.72408 31.6935 9.04944C32.708 9.37479 33.5651 10.066 34.098 10.9884C34.6309 11.9109 34.8016 12.9986 34.5767 14.0399C34.3519 15.0813 33.7476 16.0017 32.8815 16.622C32.3176 17.0178 31.8572 17.5435 31.5394 18.1548C31.2215 18.766 31.0556 19.4448 31.0556 20.1338C31.0556 20.8227 31.2215 21.5016 31.5394 22.1128C31.8572 22.7241 32.3176 23.2498 32.8815 23.6455C33.7476 24.2659 34.3519 25.1863 34.5767 26.2277C34.8016 27.269 34.6309 28.3567 34.098 29.2792C33.5651 30.2016 32.708 30.8928 31.6935 31.2182C30.6791 31.5435 29.5799 31.4798 28.6099 31.0394C27.9851 30.7484 27.2995 30.6121 26.611 30.6422C25.9225 30.6723 25.2513 30.8679 24.6544 31.2123C24.0574 31.5567 23.5523 32.0399 23.1816 32.6209C22.811 33.2019 22.5857 33.8637 22.525 34.5502C22.424 35.6129 21.9304 36.5998 21.1407 37.318C20.3509 38.0363 19.3218 38.4343 18.2543 38.4343C17.1868 38.4343 16.1576 38.0363 15.3679 37.318C14.5781 36.5998 14.0845 35.6129 13.9835 34.5502C13.9229 33.8635 13.6977 33.2014 13.327 32.6202C12.9562 32.039 12.4508 31.5557 11.8536 31.2112C11.2564 30.8667 10.585 30.6713 9.89626 30.6414C9.2075 30.6115 8.52167 30.748 7.89687 31.0394C6.92683 31.4798 5.82763 31.5435 4.8132 31.2182C3.79877 30.8928 2.94168 30.2016 2.40875 29.2792C1.87582 28.3567 1.70518 27.269 1.93003 26.2277C2.15488 25.1863 2.75913 24.2659 3.6252 23.6455C4.18917 23.2498 4.64954 22.7241 4.96736 22.1128C5.28518 21.5016 5.45111 20.8227 5.45111 20.1338C5.45111 19.4448 5.28518 18.766 4.96736 18.1548C4.64954 17.5435 4.18917 17.0178 3.6252 16.622C2.76035 16.0014 2.15716 15.0813 1.93285 14.0407C1.70855 13.0001 1.87915 11.9132 2.4115 10.9914C2.94386 10.0695 3.79994 9.3785 4.81336 9.05265C5.82679 8.7268 6.92517 8.78938 7.89503 9.22821C8.51975 9.51923 9.20539 9.65545 9.89392 9.62535C10.5824 9.59525 11.2536 9.39971 11.8505 9.05529C12.4475 8.71086 12.9526 8.22769 13.3233 7.64667C13.6939 7.06565 13.9192 6.40388 13.9799 5.71738" stroke="#9F9FA9" stroke-width="3.66667" stroke-linecap="round" stroke-linejoin="round"/>
</svg>
